<svg width="48" height="48" viewBox="0 0 48 48" fill="none" xmlns="http://www.w3.org/2000/svg">
<path d="M13.8145 12C21.8125 12 26.2968 16.023 26.4482 21.9443L19.541 22.1689C19.3591 18.8866 16.6167 16.7306 13.8145 16.7949C9.96709 16.8755 7.11914 19.5951 7.11914 23.9072C7.11922 28.2192 9.96715 30.8904 13.8145 30.8906C16.6168 30.8906 19.2986 28.8303 19.6016 25.5479L26.5088 25.709C26.327 31.7269 21.5702 35.8145 13.8145 35.8145C6.05901 35.8143 0.000106483 31.1478 0 23.9072C0 16.6344 5.81659 12.0002 13.8145 12ZM47.999 12.7031V35.2305H29.8213V12.7031H47.999Z" fill="#090B0B"/>
</svg>
